<svg xmlns="http://www.w3.org/2000/svg" width="12.675" height="15.896" viewBox="0 0 12.675 15.896"><path d="M11.521,6.017a2.467,2.467,0,1,0-3.837,0V4.461a1.918,1.918,0,0,1,3.837,0ZM12.89,17.348A4.192,4.192,0,0,0,17,13.237h0V9.949a.822.822,0,1,0-1.644,0v.272h-.548V8.855a.822.822,0,1,0-1.644,0v.819h-.548V8.307a.822.822,0,1,0-1.644,0v1.915h-.548V4.47a.822.822,0,1,0-1.644,0V10.66C7.65,9.455,6.165,8.127,5.557,8.74S6.5,10.991,8.64,14.6c.968,1.626,2.191,2.749,4.25,2.749h0Zm4.661-4.111A4.659,4.659,0,0,1,12.891,17.9a5.289,5.289,0,0,1-4.746-3.054c-1.789-3.26-4.077-5.4-2.987-6.485.779-.779,2-.031,3.074.971h0V4.472a1.37,1.37,0,1,1,2.741,0V7.208a1.375,1.375,0,0,1,2.109.62,1.369,1.369,0,0,1,2.276,1.024v.007a1.372,1.372,0,0,1,2.193,1.1Z" transform="translate(-4.875 -2)" fill="#aaa"/></svg>